<svg width="44" height="40" viewBox="0 0 44 40" fill="none" xmlns="http://www.w3.org/2000/svg">
<path d="M25.125 0H31.3125C31.7625 1.7875 33 4.0425 35.1719 6.28C37.2969 8.4725 40.1156 10 43.875 10V15C38.3969 15 34.2812 12.965 31.375 10.4275V27.5C31.375 29.9723 30.4586 32.389 28.7417 34.4446C27.0248 36.5002 24.5845 38.1024 21.7294 39.0485C18.8743 39.9946 15.7327 40.2421 12.7017 39.7598C9.67076 39.2775 6.88665 38.087 4.70146 36.3388C2.51626 34.5907 1.02812 32.3634 0.425229 29.9386C-0.177665 27.5139 0.131762 25.0005 1.31438 22.7165C2.497 20.4324 4.4997 18.4801 7.06921 17.1066C9.63873 15.7331 12.6597 15 15.75 15V20C13.8958 20 12.0832 20.4399 10.5415 21.264C8.99982 22.0881 7.7982 23.2594 7.08863 24.6299C6.37906 26.0003 6.1934 27.5083 6.55514 28.9632C6.91687 30.418 7.80976 31.7544 9.12087 32.8033C10.432 33.8522 12.1025 34.5665 13.921 34.8559C15.7396 35.1453 17.6246 34.9968 19.3377 34.4291C21.0507 33.8614 22.5149 32.9002 23.545 31.6668C24.5752 30.4334 25.125 28.9834 25.125 27.5V0Z" fill="white"/>
</svg>
