<svg width="50" height="41" viewBox="0 0 50 41" fill="none" xmlns="http://www.w3.org/2000/svg">
<path d="M15.7063 40.875C34.575 40.875 44.8969 25.2406 44.8969 11.7062C44.8969 11.2687 44.8969 10.825 44.8781 10.3875C46.8877 8.93274 48.6221 7.13169 50 5.06872C48.1229 5.89638 46.1336 6.44186 44.0969 6.68747C46.2423 5.40509 47.8491 3.38737 48.6187 1.00934C46.6031 2.20348 44.3969 3.04176 42.0969 3.48747C40.5506 1.84067 38.5044 0.749712 36.2753 0.383586C34.0461 0.0174602 31.7585 0.396598 29.7667 1.46227C27.7749 2.52795 26.19 4.22068 25.2577 6.27828C24.3253 8.33588 24.0974 10.6435 24.6094 12.8437C20.5304 12.6392 16.5401 11.5796 12.897 9.73354C9.25397 7.88752 6.03964 5.29636 3.4625 2.12809C2.15419 4.38773 1.75492 7.0606 2.34577 9.60392C2.93662 12.1473 4.4733 14.3704 6.64375 15.8218C5.01731 15.7666 3.42663 15.3298 2 14.5468V14.6875C2.0028 17.0546 2.82284 19.3482 4.32148 21.1805C5.82013 23.0128 7.90546 24.2714 10.225 24.7437C9.34457 24.9863 8.43509 25.1072 7.52188 25.1031C6.87807 25.105 6.23556 25.0454 5.60313 24.925C6.25871 26.9626 7.53523 28.7442 9.2539 30.0202C10.9726 31.2962 13.0473 32.0026 15.1875 32.0406C11.5517 34.8962 7.06063 36.445 2.4375 36.4375C1.62288 36.4409 0.808822 36.3939 0 36.2968C4.69223 39.2883 10.1416 40.8767 15.7063 40.875Z" fill="white"/>
</svg>
